<?xml version="1.0" encoding="UTF-8" standalone="no"?>
<!-- Created with Inkscape (http://www.inkscape.org/) -->

<svg
   width="100.00047"
   height="100"
   viewBox="0 0 26.458457 26.458333"
   version="1.1"
   id="svg5"
   xml:space="preserve"
   xmlns:xlink="http://www.w3.org/1999/xlink"
   xmlns="http://www.w3.org/2000/svg"
   xmlns:svg="http://www.w3.org/2000/svg"><defs
     id="defs2"><color-profile
       name="Coated-FOGRA39--ISO-12647-2:2004-"
       xlink:href="file:///usr/share/color/icc/icc-profiles-adobe/CoatedFOGRA39.icc"
       id="color-profile1" /><color-profile
       name="Web-Coated-SWOP-2006-Grade-5-Paper"
       xlink:href="file:///usr/share/color/icc/icc-profiles-adobe/WebCoatedSWOP2006Grade5.icc"
       id="color-profile2" /><clipPath
       clipPathUnits="userSpaceOnUse"
       id="clipPath6"><circle
         style="font-variation-settings:normal;opacity:1;vector-effect:non-scaling-stroke;fill:#ffffff;fill-opacity:1;fill-rule:evenodd;stroke:none;stroke-width:0.264582;stroke-linecap:butt;stroke-linejoin:miter;stroke-miterlimit:4;stroke-dasharray:none;stroke-dashoffset:0;stroke-opacity:1;-inkscape-stroke:hairline;stop-color:#000000;stop-opacity:1"
         id="circle7"
         cx="263.79745"
         cy="38.210152"
         r="39.004284" /></clipPath></defs><g
     id="layer1"
     style="display:inline"
     transform="translate(-50.249732,-331.86163)"><g
       id="g8"
       transform="matrix(0.23097397,0,0,0.23097397,0.54012659,232.09865)"
       style="stroke-width:4.32949"><circle
         style="font-variation-settings:normal;opacity:1;vector-effect:non-scaling-stroke;fill:#ffffff;fill-opacity:1;fill-rule:evenodd;stroke:none;stroke-width:1.14551;stroke-linecap:butt;stroke-linejoin:miter;stroke-miterlimit:4;stroke-dasharray:none;stroke-dashoffset:0;stroke-opacity:1;-inkscape-stroke:hairline;stop-color:#000000;stop-opacity:1"
         id="circle6"
         cx="272.49326"
         cy="489.19846"
         r="46.118057" /><g
         id="g3"
         style="display:inline;stroke-width:3.66166"
         transform="matrix(1.1823844,0,0,1.1823844,-39.416734,444.01938)"
         clip-path="url(#clipPath6)"><path
           id="path2"
           style="font-variation-settings:normal;vector-effect:non-scaling-stroke;fill:#000000;fill-opacity:1;fill-rule:evenodd;stroke:none;stroke-width:0.96881;stroke-linecap:butt;stroke-linejoin:miter;stroke-miterlimit:4;stroke-dasharray:none;stroke-dashoffset:0;stroke-opacity:1;-inkscape-stroke:hairline;stop-color:#000000"
           d="m 267.07155,6.6295695 c -0.51434,0 -0.9549,0.117957 -1.33015,0.2656169 -0.3871,0.1480998 -0.78348,0.3654212 -1.13481,0.6754109 a 2.50025,2.50025 0 0 0 -0.0568,0.05116 c -0.50028,0.4689695 -1.04182,1.5769697 -0.87281,2.5507487 v 0.0021 c -4e-5,0.0105 -0.004,0.08786 -0.0527,0.241845 l 0.0233,-0.06821 c -0.12697,0.365059 -0.23554,0.934376 -0.0563,1.581815 0.0887,0.32057 0.34391,0.482857 0.53898,0.738456 -3.07766,-1.697328 -6.60672,-2.097727 -9.67176,-2.122867 -5.20256,-0.0427 -12.37648,1.644879 -18.77146,4.164086 -3.19749,1.259599 -6.16948,2.726807 -8.56279,4.402316 -2.3933,1.675508 -4.3822,3.522882 -4.99608,6.187219 -0.52433,2.275688 0.003,4.27182 0.60927,5.810498 0.60598,1.538668 1.25217,2.879265 1.67587,5.234823 0.13294,0.739079 0.41221,1.543115 1.06453,2.230354 0.65232,0.68724 1.65371,1.067109 2.46083,1.105359 1.61424,0.0765 2.66267,-0.537339 3.84783,-1.210779 0.92134,-0.523519 2.21137,-1.525043 3.25561,-2.256193 -0.1562,1.083199 -0.30369,2.130932 -0.43356,3.142961 -3.8767,2.396448 -7.15863,5.479717 -8.55865,9.486243 -0.55648,1.592479 -0.81269,3.126874 -0.8692,4.587317 a 1.9949936,1.9949936 0 0 0 -0.82837,-0.180868 1.9949936,1.9949936 0 0 0 -1.99523,1.995227 1.9949936,1.9949936 0 0 0 1.99523,1.99471 1.9949936,1.9949936 0 0 0 1.0883,-0.324011 c 0.27991,1.408051 0.74496,2.698574 1.31672,3.833875 1.52453,3.027157 3.67926,5.048352 5.04465,6.15983 2.23822,2.011608 5.96799,3.478302 10.27534,2.098064 1.61242,-0.51669 3.23214,-1.555027 4.88291,-2.797246 0.74427,1.306079 2.25991,2.082519 3.78116,1.72496 l -0.0682,0.01344 c 0,0 35.69334,-7.348971 87.60602,3.854028 -0.0316,0.997951 -0.0775,1.79512 -0.13436,2.054655 -0.19197,0.876189 -0.44643,1.635137 -0.44751,2.046387 -1.2e-4,0.640489 0.39149,1.170074 1.03198,1.169954 0.64028,-1.6e-4 0.97163,-0.630434 0.97151,-1.270724 -6e-5,-0.412069 -0.20897,-1.220062 -0.46715,-2.283581 -0.0627,-0.258408 -0.10695,-0.818862 -0.13384,-1.538407 0.59044,0.129227 1.17329,0.249367 1.76785,0.383439 0.007,1.580524 -0.12957,3.224774 -0.33797,4.117578 -0.41728,1.787558 -0.71596,2.391416 -0.71778,2.960026 10e-6,1.016319 0.64457,1.869126 1.66088,1.869136 1.01631,-1e-5 1.65363,-0.800117 1.65364,-1.816426 -2.2e-4,-0.57043 -0.38964,-1.576885 -0.80563,-3.364653 -0.1913,-0.822078 -0.32299,-2.220504 -0.33022,-3.608565 2.08009,0.03512 4.01125,-1.408198 4.485,-3.504696 a 2.50025,2.50025 0 0 0 0.002,-0.0015 c 0.34654,-1.536958 -0.22548,-3.038759 -1.26917,-4.100008 0.25752,-0.11732 0.63479,-0.142563 0.85938,-0.279053 1.73807,-1.056299 2.52904,-2.705261 2.52904,-2.705261 a 2.50025,2.50025 0 0 0 -1.40818,-3.368787 c -0.89819,-0.333829 -1.88159,-1.639263 -2.49236,-3.835941 -0.60841,-2.188218 -0.77509,-4.964776 -0.6227,-7.109644 0.17844,-2.041418 0.93715,-4.654215 1.71876,-6.769612 0.7825,-2.117828 1.68286,-3.961913 1.69499,-3.984253 0.12136,-0.223473 0.22466,-0.452707 0.30799,-0.68833 a 1.8402232,1.8402232 0 0 0 0.88677,0.23306 1.8402232,1.8402232 0 0 0 1.84019,-1.840197 1.8402232,1.8402232 0 0 0 -1.84019,-1.840198 1.8402232,1.8402232 0 0 0 -0.93018,0.256832 c -0.32136,-0.854231 -0.91479,-1.695617 -1.76268,-2.287199 -2.5936,-1.809538 -6.5498,-1.051954 -9.62267,2.502173 -0.83218,0.962529 -1.20647,1.529148 -2.17765,2.753837 -1.0307,-1.727489 -2.71984,-2.646225 -4.13514,-2.949174 -1.49136,-0.31922 -2.48685,-0.37547 -3.85713,0.21084 -1.05931,0.453249 -1.91147,1.824463 -1.96112,2.732133 -0.0205,0.374796 0.0249,0.66533 0.0832,0.889351 0.002,-0.01 0.006,-0.01992 0.005,-0.02997 l 0.0935,0.305407 c 0.031,0.07156 0.0707,0.184731 0.0863,0.216525 -0.0153,-0.0362 -0.0367,-0.07127 -0.0527,-0.107487 l -0.0336,-0.109038 c -0.0359,-0.0827 -0.0625,-0.138178 -0.0982,-0.275435 -0.006,0.02913 -0.0181,0.05822 -0.0145,0.08733 -0.12327,-0.24356 -0.20634,-0.487499 -0.37724,-0.718819 0.25583,-1.493389 0.29201,-2.972933 -0.15451,-4.327901 -0.62046,-1.882778 -2.23907,-3.698708 -4.49379,-3.988387 -0.18378,-0.0236 -0.36479,-0.03886 -0.54312,-0.04496 -2.78584,-0.0949 -5.04125,1.388784 -7.19336,3.115572 -0.93729,0.75206 -1.82413,1.607483 -2.67942,2.478402 -0.003,-0.0558 0.0294,-0.06444 0.0233,-0.12299 -0.0919,-0.891569 -0.86892,-1.982313 -1.66399,-2.379183 -0.62053,-0.30976 -1.05497,-0.339403 -1.42782,-0.314193 -0.91249,-0.972069 -1.85868,-1.747079 -2.59984,-2.216919 -1.11281,-0.705459 -2.50588,-1.098513 -4.37854,-1.056783 -1.0866,0.0242 -2.30727,0.348653 -3.55896,0.839742 0.69388,-1.711288 1.31842,-3.454227 1.67225,-5.165576 0.22218,-1.074602 0.35095,-2.140575 0.35709,-3.195154 a 2.5738306,2.5738306 0 0 0 1.21336,0.311609 2.5738306,2.5738306 0 0 0 2.574,-2.574003 2.5738306,2.5738306 0 0 0 -2.574,-2.573486 2.5738306,2.5738306 0 0 0 -1.98386,0.939994 c -0.62448,-1.302037 -1.65228,-2.469377 -3.03599,-3.170866 -0.77124,-0.390969 -1.63014,-0.601879 -2.4629,-0.613399 -1.3278,-0.0184 -2.4534,0.470658 -3.49798,1.097608 0.0291,-0.22563 0.11731,-0.430127 0.11731,-0.669727 0,-1.195589 -0.49868,-2.515749 -1.38906,-3.3925575 -0.95263,-0.9461491 -2.21321,-1.312207 -3.49023,-1.4474569 l 0.0687,0.05116 c -0.0217,-0.0169 -0.0387,-0.00314 -0.0605,-0.019637 -0.0108,-0.008 -0.0148,-0.02724 -0.0258,-0.03514 -0.0493,-0.005 -0.0969,-0.017504 -0.14624,-0.021704 -0.60551,-0.3792096 -1.22899,-0.5508708 -1.6738,-0.5508708 -0.48022,0 -0.86778,0.1958652 -1.28106,0.344165 -0.37479,-0.1270098 -0.76902,-0.3302124 -1.07849,-0.3302124 -0.44495,0 -0.81658,0.1977399 -1.21853,0.3338298 l 0.0935,0.060461 c -0.0284,-0.0198 -0.055,-0.00692 -0.0837,-0.025321 -0.0105,-0.007 -0.0169,-0.024306 -0.0274,-0.031006 -0.0123,0.004 -0.0249,0.00667 -0.0372,0.011369 -0.56922,-0.3472796 -1.18442,-0.5059122 -1.65623,-0.5059122 -0.63866,0 -1.24512,0.1672181 -1.76165,0.4123779 -0.23907,0.1113199 -0.50691,0.302211 -0.76584,0.5157308 -0.11715,-0.0648 -0.21806,-0.1658426 -0.33796,-0.2247925 -0.79646,-0.3965096 -1.69743,-0.6190837 -2.59364,-0.6190837 -0.50261,0 -0.98889,0.084393 -1.45676,0.2087728 -0.10389,-0.0858 -0.13074,-0.2699254 -0.23668,-0.3281453 -0.60436,-0.3321397 -1.0651,-0.3493327 -1.40612,-0.3493327 z m 20.54604,1.0681519 a 0.75046486,0.75046486 0 0 0 -0.75035,0.7503418 0.75046486,0.75046486 0 0 0 0.75035,0.7503417 0.75046486,0.75046486 0 0 0 0.75034,-0.7503417 0.75046486,0.75046486 0 0 0 -0.75034,-0.7503418 z m 11.1187,13.0669026 a 1.0787821,1.0787821 0 0 0 -1.07901,1.079004 1.0787821,1.0787821 0 0 0 1.07901,1.078487 1.0787821,1.0787821 0 0 0 1.07848,-1.078487 1.0787821,1.0787821 0 0 0 -1.07848,-1.079004 z m 49.98919,9.319328 a 1.2010204,1.2010204 0 0 0 -1.20096,1.20096 1.2010204,1.2010204 0 0 0 1.20096,1.20096 1.2010204,1.2010204 0 0 0 1.20096,-1.20096 1.2010204,1.2010204 0 0 0 -1.20096,-1.20096 z m 2.31873,1.177189 a 0.85992306,0.85992306 0 0 0 -0.8599,0.859896 0.85992306,0.85992306 0 0 0 0.8599,0.859896 0.85992306,0.85992306 0 0 0 0.85989,-0.859896 0.85992306,0.85992306 0 0 0 -0.85989,-0.859896 z M 222.11047,47.438965 a 2.5738306,2.5738306 0 0 0 -2.57348,2.574003 2.5738306,2.5738306 0 0 0 2.57348,2.574003 2.5738306,2.5738306 0 0 0 2.57401,-2.574003 2.5738306,2.5738306 0 0 0 -2.57401,-2.574003 z m -1.64589,6.078699 a 1.3654528,1.3654528 0 0 0 -1.36581,1.365808 1.3654528,1.3654528 0 0 0 1.36581,1.365291 1.3654528,1.3654528 0 0 0 1.36529,-1.365291 1.3654528,1.3654528 0 0 0 -1.36529,-1.365808 z M 348.6366,65.032206 a 0.85992306,0.85992306 0 0 0 -0.8599,0.859896 0.85992306,0.85992306 0 0 0 0.8599,0.859896 0.85992306,0.85992306 0 0 0 0.8599,-0.859896 0.85992306,0.85992306 0 0 0 -0.8599,-0.859896 z" /><path
           id="path3"
           style="color:#000000;fill:#ffffff;fill-opacity:1;stroke-width:3.66166;stroke-linecap:round;-inkscape-stroke:none"
           d="m 266.54239,8.0708252 c -0.13047,0 -0.2736,0.031401 -0.42892,0.093534 -0.1491,0.055913 -0.27627,0.1305657 -0.38189,0.223759 -0.0994,0.093187 -0.1401,0.1925531 -0.12144,0.298173 0.0249,0.1987998 0.0372,0.3414177 0.0372,0.4283976 0,0.3106264 -0.0556,0.6432289 -0.16743,0.9973552 -0.0497,0.142893 0.0589,0.214457 0.32608,0.214457 0.0932,0 0.17093,-0.0062 0.23306,-0.0186 v -5.17e-4 c 0.15531,-0.03107 0.29484,-0.08667 0.41909,-0.167431 0.13048,-0.08077 0.2144,-0.1832223 0.25167,-0.3074755 0.11183,-0.3479063 0.16795,-0.6897741 0.16795,-1.0252604 0,-0.1677399 -0.0154,-0.3603028 -0.0465,-0.5777426 -0.0186,-0.1056132 -0.11492,-0.1586466 -0.28887,-0.1586466 z m 8.55865,0.3839559 c -0.22871,0 -0.46198,0.057216 -0.70022,0.1715657 -0.2287,0.1048299 -0.37171,0.2385026 -0.42891,0.4004924 -0.14294,0.4002396 -0.27167,0.7286966 -0.38603,0.9859868 -0.38117,0.971989 -0.67166,1.801067 -0.87178,2.487186 -0.14529,0.498146 -0.23666,0.988669 -0.27647,1.471745 -0.009,-0.01403 -0.0147,-0.02838 -0.0238,-0.04237 -0.20011,-0.333529 -0.42403,-0.619599 -0.67179,-0.857828 -0.24777,-0.24777 -0.58117,-0.552554 -1.00046,-0.914673 -0.0858,-0.07623 -0.28107,-0.219265 -0.58601,-0.428915 -0.37164,-0.257289 -0.67202,-0.481204 -0.90072,-0.671793 -0.2287,-0.20011 -0.37616,-0.409733 -0.44286,-0.628902 -0.0477,-0.162 -0.0713,-0.276432 -0.0713,-0.343132 0,-0.1905798 0.0952,-0.2857707 0.28577,-0.2857707 0.23823,0 0.57658,0.1287332 1.01493,0.3860227 0.44788,0.24776 0.76204,0.448021 0.94309,0.60048 0.0953,0.08574 0.23833,0.128675 0.42892,0.128675 0.28588,0 0.57637,-0.08581 0.87178,-0.257349 0.29541,-0.17153 0.44338,-0.348097 0.44338,-0.529167 0,-0.09529 -0.0429,-0.1761789 -0.12867,-0.2428788 -0.49553,-0.4192896 -0.98627,-0.7477566 -1.47226,-0.9859863 -0.47647,-0.2382298 -0.97214,-0.3576009 -1.48673,-0.3576009 -0.27635,0 -0.56685,0.042874 -0.87179,0.1286743 -0.47647,0.1334098 -0.90062,0.3809974 -1.27227,0.7431071 -0.36211,0.3525896 -0.54312,0.7432016 -0.54312,1.1720216 0,0.27636 0.0809,0.543168 0.24288,0.800468 0.12388,0.19058 0.27628,0.367177 0.45734,0.529166 0.18105,0.16201 0.40055,0.338071 0.65784,0.52865 0.31446,0.23823 0.49055,0.376862 0.52865,0.414962 l 0.38602,0.328662 c 0.35258,0.29542 0.64308,0.557299 0.87178,0.785999 0.2287,0.2287 0.41465,0.471864 0.55759,0.729154 0.14291,0.26683 0.21446,0.490744 0.21446,0.671794 0,0.2573 -0.14798,0.386023 -0.44339,0.386023 -0.36211,0 -0.805,-0.171638 -1.32911,-0.514697 -0.57176,-0.37165 -1.15326,-0.957564 -1.74408,-1.758033 -0.0953,-0.12392 -0.24769,-0.186035 -0.45734,-0.186035 -0.27635,0 -0.55748,0.09076 -0.84336,0.271818 -0.27635,0.17153 -0.41444,0.361892 -0.41444,0.571542 0,0.08576 0.0286,0.171548 0.0858,0.257348 1.09587,1.505639 2.2919,2.367753 3.58789,2.586922 0.19058,0.0286 0.38096,0.04289 0.57154,0.04289 0.56223,0 1.09146,-0.118845 1.58699,-0.357084 0.50505,-0.23823 0.86707,-0.581515 1.08624,-1.029395 0.004,-0.008 0.006,-0.01577 0.01,-0.02377 0.13011,0.367694 0.34882,0.676986 0.66145,0.924491 0.46693,0.36212 1.00553,0.54312 1.61541,0.54312 0.24776,0 0.50965,-0.03801 0.786,-0.114205 0.80998,-0.23823 1.4201,-0.738851 1.82986,-1.501201 0.40976,-0.762349 0.67165,-1.577126 0.786,-2.444295 0.12386,-0.867159 0.20965,-1.920171 0.25735,-3.1589802 0,-0.2191698 0.009,-0.5096718 0.0284,-0.8717814 0.01,-0.1334199 -0.0329,-0.2285707 -0.12816,-0.2857707 -0.0953,-0.06676 -0.2196,-0.1002523 -0.37207,-0.1002523 -0.26682,0 -0.53365,0.076457 -0.80047,0.2289266 -0.2573,0.1429399 -0.38997,0.3096481 -0.39997,0.5002279 -0.0285,0.5622294 -0.0666,1.1437401 -0.11421,1.7440791 -0.0381,0.60035 -0.0909,1.152721 -0.15761,1.65778 -0.0858,0.61941 -0.15229,1.072177 -0.19999,1.358057 -0.0476,0.28587 -0.14777,0.614864 -0.30024,0.986503 -0.14294,0.36211 -0.33331,0.619069 -0.57154,0.771529 -0.0286,0.0286 -0.0474,0.04289 -0.0574,0.04289 l -0.11421,-0.02842 c -0.12388,-0.0095 -0.25755,-0.0475 -0.40049,-0.114205 -0.14294,-0.07624 -0.25733,-0.157596 -0.34313,-0.243396 -0.27635,-0.24776 -0.41444,-0.652684 -0.41444,-1.214913 0,-0.13341 0.01,-0.31442 0.0289,-0.543119 0.0572,-0.54318 0.16173,-1.071877 0.3142,-1.586467 0.15247,-0.524099 0.36702,-1.172198 0.64337,-1.944067 0.10482,-0.27635 0.25229,-0.6906358 0.44287,-1.2433352 0.0186,-0.07623 0.0289,-0.1334658 0.0289,-0.1715658 0,-0.1143499 -0.0478,-0.2001487 -0.14314,-0.2573486 -0.0953,-0.06666 -0.21908,-0.1002523 -0.37155,-0.1002523 z m 5.28856,0.1431437 c -0.25729,0 -0.52409,0.07594 -0.80046,0.2284098 -0.27633,0.1429399 -0.42874,0.3145875 -0.45734,0.5146973 -0.0186,0.1334199 -0.0289,0.2285707 -0.0289,0.2857707 -0.12393,0.1524698 -0.18552,0.2861424 -0.18552,0.4004924 0,0.08577 0.033,0.147418 0.0997,0.185518 -0.21917,1.886798 -0.38094,3.854708 -0.48576,5.903516 -0.0572,0.0093 -0.15237,0.01447 -0.28577,0.01447 -0.23825,0 -0.47201,0.09518 -0.70073,0.285771 -0.23822,0.19059 -0.35709,0.371589 -0.35709,0.543119 0,0.0953 0.0473,0.171727 0.14263,0.228927 0.0858,0.0572 0.21943,0.08578 0.40049,0.08578 0.24776,0 0.50029,-0.01429 0.75758,-0.04289 -0.0571,1.229289 -0.10008,2.553533 -0.12868,3.973401 -0.0191,1.419869 -0.0339,1.257709 -0.0429,1.629358 l -0.0145,1.143083 c 0,0.24776 0.16671,0.37207 0.50023,0.37207 0.28588,0 0.56701,-0.07647 0.84336,-0.228926 0.27636,-0.15247 0.41891,-0.328541 0.42891,-0.52865 0.0477,-1.172109 0.0758,-1.2812 0.0858,-2.443779 0.01,-0.485999 0.0238,-1.096103 0.0429,-1.829862 0.0191,-0.72423 0.0477,-1.572042 0.0858,-2.544031 0.9434,-0.37165 1.78185,-0.910226 2.51561,-1.615405 0.73376,-0.7147 1.25804,-1.520114 1.57251,-2.415874 0.15251,-0.476469 0.22893,-0.886322 0.22893,-1.229382 0,-0.657519 -0.21455,-1.195599 -0.64337,-1.6148884 -0.57176,-0.5717594 -1.43881,-0.8578288 -2.60139,-0.8578288 -0.21917,0 -0.38145,0.00447 -0.48628,0.014469 v -0.057361 c 0.0191,-0.1334099 -0.0189,-0.2335401 -0.1142,-0.3002401 -0.0858,-0.06676 -0.20956,-0.099736 -0.37156,-0.099736 z m 0.34314,1.5719972 c 0.87669,-0.01905 1.50058,0.190552 1.87223,0.628902 0.24776,0.27635 0.37156,0.633936 0.37156,1.072286 0,0.33353 -0.0715,0.681238 -0.21446,1.043347 -0.21917,0.57176 -0.5427,1.096055 -0.97152,1.572514 -0.42882,0.46694 -0.91514,0.84325 -1.45831,1.12913 0.0953,-2.125038 0.22897,-3.940541 0.4005,-5.446179 z m -26.82472,1.816943 c -9.1948,-0.0754 -28.40489,6.445642 -29.8726,12.815755 -0.79641,3.456587 1.35816,4.752137 2.30942,10.040731 0.61952,3.44428 5.23657,-0.631879 11.85096,-5.280814 -0.0135,0.02883 -0.0289,0.05747 -0.0419,0.0863 -0.62373,1.384214 -1.31204,6.597953 -1.75545,10.12393 -4.03965,2.291533 -7.29126,5.32506 -8.51834,8.83667 -2.7917,7.989138 2.6644,13.448995 5.03793,15.366504 1.78029,1.612631 4.32628,2.726111 7.86671,1.591634 7.42518,-2.379348 23.13484,-21.112523 26.15085,-36.186938 3.01601,-15.074425 -5.78403,-17.334381 -13.02762,-17.393771 z m 36.54454,1.600419 c -4.47196,-0.06188 -9.47906,9.475365 -12.18634,14.823902 -3.18403,6.29039 -5.79366,14.868662 -6.25182,21.102588 -1.16429,1.165871 -2.70384,2.386917 -3.83904,2.097546 -3.08361,-1.972098 2.10853,-11.185827 3.29903,-13.500985 0.30001,-0.517979 0.22325,-1.259074 -0.27544,-1.609204 -0.49866,-0.350129 -1.11098,-0.499685 -1.44332,-0.558105 -0.33232,-0.0584 -1.43631,-0.08605 -2.06809,0.715202 -0.54719,0.664029 -8.97314,12.341264 -8.84339,17.266129 0.13511,5.129675 6.16179,6.425208 13.15578,-1.067118 0.24083,2.806138 1.21445,4.645165 3.18017,4.760949 4.93729,0.290834 8.3244,-4.388854 11.89437,-12.73669 0.45023,1.789711 1.44125,2.944323 2.50889,3.124357 2.57641,0.43443 6.69055,-2.190047 6.69055,-2.190047 0,0 -2.97021,4.609455 -5.66736,4.241085 -2.69709,-0.36839 -2.47118,-1.133653 -3.21117,-0.935344 -0.74,0.1983 -3.13288,7.777719 1.71566,8.297168 4.84849,0.51948 8.96779,-2.290058 11.50214,-7.900293 2.53437,-5.610234 -0.95998,-7.442624 -2.43965,-7.395414 -1.4797,0.0472 -4.6232,1.931661 -5.17953,1.662431 -0.55631,-0.26922 -0.0298,-4.309733 2.6572,-7.05745 1.84079,-1.882378 3.90619,-2.778653 5.35937,-2.729033 -0.26858,0.16147 -0.50638,0.307554 -0.65474,0.405144 -0.89777,0.590569 -2.54156,1.909251 -2.24224,3.350699 0.29926,1.441429 1.72243,3.147323 2.30528,3.256132 0.58282,0.10882 1.37035,0.392515 1.56476,-0.831473 0.19438,-1.223989 1.10159,-3.917229 3.00861,-6.067847 0.46048,-0.5193 1.34315,-1.619882 0.58291,-1.999361 -0.22186,-0.11075 -0.67453,-0.0148 -1.2237,0.187068 -0.84345,-1.386948 -2.015,-2.203207 -3.02462,-2.843237 -0.51268,-0.32501 -1.58652,-0.699326 -2.98483,-0.668176 -2.33052,0.0519 -5.56334,1.229703 -8.60671,5.636348 -1.50428,2.178101 -2.33747,4.264399 -2.69751,6.121591 -2.90302,5.882542 -11.53437,18.130504 -10.47792,7.206278 0,0 9.35717,-9.31932 13.06174,-15.786633 3.70456,-6.467314 7.11174,-15.544954 2.19883,-18.035592 -0.44801,-0.227123 -0.90526,-0.336213 -1.36787,-0.342615 z m -0.0625,7.251237 c 0.42959,0.14711 -1.53992,5.988502 -3.80856,9.744108 -2.26862,3.755617 -7.58294,10.146742 -7.94111,10.484632 0.80591,-2.270458 4.29215,-8.646777 5.94537,-11.277865 1.65323,-2.631087 5.3747,-9.097985 5.8043,-8.950875 z m -32.76648,0.0026 c 1.32706,0.05883 2.39862,0.499328 2.95589,1.538924 1.80434,3.365997 -4.82939,17.694453 -17.07441,25.356075 -1.10208,0.689569 -1.67742,1.034574 -2.60449,1.609204 0.1085,-1.145343 0.12262,-2.81946 0.41548,-4.841565 0.29369,-2.027816 0.71507,-3.810662 1.17977,-5.375899 3.0099,-1.924313 6.64711,-3.121089 10.81226,-3.079915 0.70836,0.007 0.73847,-0.862042 -0.0791,-0.871782 -3.04364,-0.03625 -6.54199,0.548122 -9.9627,1.632459 1.06214,-2.878273 2.13197,-4.730992 2.38383,-5.655469 0.42438,-1.557655 0.17372,-3.181116 -3.1166,-4.474662 1.71833,-1.072218 3.51447,-2.102717 5.38106,-2.992582 2.63379,-1.255608 6.78944,-2.974211 9.70897,-2.844788 z m 17.06511,3.363619 a 2.8593031,5.0019582 28.67863 0 0 -4.65295,4.598169 2.8593031,5.0019582 28.67863 0 0 1.56787,4.597652 2.8593031,5.0019582 28.67863 0 0 4.65346,-4.597652 2.8593031,5.0019582 28.67863 0 0 -1.56838,-4.598169 z m 43.43249,5.07876 c -3.25094,-0.110791 -7.92019,4.264755 -10.84275,8.070825 -3.21607,4.188316 -8.73401,15.254213 -6.15466,18.18752 3.46661,3.942326 10.14895,0.06699 13.09894,-6.214607 0.55015,5.950094 3.02346,8.008119 5.65237,7.68997 0.78336,-0.0948 1.36593,-0.793471 1.79834,-1.665532 0.53376,1.75989 1.79816,2.823302 3.65869,3.071131 2.41023,0.321059 3.3908,-0.834338 3.76101,-2.027267 0.37022,-1.192909 1.92245,-7.589486 3.98219,-11.128003 2.05972,-3.538526 4.77335,-6.109188 4.77335,-6.109188 0,0 -3.70533,5.705186 -4.78266,10.130131 -1.07732,4.424936 -1.11904,10.798476 5.18263,12.528435 5.92159,1.625618 7.5396,-1.969906 7.5396,-1.969906 -4.07999,-1.516418 -5.08649,-8.678259 -4.7377,-13.497884 0.42378,-4.881645 3.31613,-11.012859 3.71037,-11.738818 0.39424,-0.72596 0.45554,-2.094294 -0.73122,-2.922303 -1.18676,-0.827999 -3.78453,-0.824402 -6.30143,2.086695 -2.51688,2.911107 -6.83886,8.653218 -6.83886,8.653218 0,0 1.9398,-3.892408 0.75758,-6.154146 -1.18221,-2.261738 -4.2051,-2.15878 -4.99556,-1.820561 -0.68309,0.29228 -0.38447,0.921908 -0.38447,0.921908 0.45902,3.056997 -1.17844,5.268352 -2.35697,8.303369 -0.8026,2.066885 -1.70194,5.089358 -2.17816,7.376811 -0.0853,0.157251 -0.16789,0.324405 -0.24339,0.511596 -1.088,2.697428 -2.27365,0.387231 -2.10065,-2.466516 0.13813,-2.278708 2.46631,-6.752702 2.77296,-9.223209 0.16742,-1.348859 -0.40104,-3.308134 -1.45676,-3.808554 1.1119,-3.205956 0.0853,-6.457351 -2.27273,-6.76031 -0.10181,-0.01308 -0.20519,-0.02123 -0.31006,-0.0248 z m -1.98024,4.916496 c 2.69978,-0.0315 0.3658,5.048292 -0.82889,8.057389 -3.44904,5.957154 -5.68828,7.468621 -6.80475,6.851261 -0.71881,-0.397469 -0.28497,-4.418645 1.12913,-7.472412 1.4141,-3.053767 4.10524,-7.408198 6.50451,-7.436238 z m -78.6567,9.428881 c -0.79948,1.375329 -1.49379,3.139628 -1.76113,3.855579 -0.002,1.527559 0.11878,2.847727 0.46199,3.330546 0.26714,0.375842 0.69752,0.601097 1.20819,0.696598 -1.98945,1.214497 -3.47925,2.109139 -4.50412,2.707329 0.37046,-3.515835 1.96591,-7.351168 4.59507,-10.590052 z m 46.68501,14.823385 c -21.81334,0.1499 -34.97668,4.078304 -34.97668,4.078304 -0.52786,0.12384 -0.85568,0.65245 -0.73174,1.18029 0.12427,0.527469 0.65276,0.854178 1.18029,0.730188 0,0 37.57055,-7.725572 91.47556,4.475696 1.07765,0.244059 2.14855,-0.432217 2.3921,-1.509986 0.24283,-1.076989 -0.43265,-2.146972 -1.50947,-2.390551 C 321.4895,60.373857 303.3318,58.723399 288.64598,58.475 c -1.52978,-0.02588 -3.02251,-0.03273 -4.47673,-0.02274 z" /></g><path
         id="path4"
         style="font-variation-settings:normal;opacity:1;vector-effect:non-scaling-stroke;fill:#000000;fill-opacity:1;fill-rule:evenodd;stroke:none;stroke-width:1.14551;stroke-linecap:butt;stroke-linejoin:miter;stroke-miterlimit:4;stroke-dasharray:none;stroke-dashoffset:0;stroke-opacity:1;-inkscape-stroke:hairline;stop-color:#000000;stop-opacity:1"
         d="m 272.49344,431.92299 a 57.27565,57.27565 0 0 0 -57.27609,57.27557 57.27565,57.27565 0 0 0 57.27609,57.27558 57.27565,57.27565 0 0 0 57.27558,-57.27558 57.27565,57.27565 0 0 0 -57.27558,-57.27557 z m 0,12.14913 a 45.12627,45.12627 0 0 1 45.12593,45.12644 45.12627,45.12627 0 0 1 -45.12593,45.12593 45.12627,45.12627 0 0 1 -45.12644,-45.12593 45.12627,45.12627 0 0 1 45.12644,-45.12644 z" /></g></g></svg>
